<svg xmlns="http://www.w3.org/2000/svg" width="340" height="200" viewBox="0 0 340 200"><style>* {
          font-family: 'Segoe UI', Ubuntu, "Helvetica Neue", Sans-Serif
        }</style><rect x="1" y="1" rx="5" ry="5" height="99%" width="99.41176470588235%" stroke="#141321" stroke-width="1" fill="#141321" stroke-opacity="1"></rect><text x="30" y="40" style="font-size: 22px; fill: red;">Top Languages by Commit</text><g transform="translate(0,40)"><g transform="translate(40,0)"><rect y="18" width="14" height="14" fill="#3572A5" stroke="#141321" style="stroke-width: 1px;"></rect><rect y="43.2" width="14" height="14" fill="#3178c6" stroke="#141321" style="stroke-width: 1px;"></rect><rect y="68.4" width="14" height="14" fill="#f1e05a" stroke="#141321" style="stroke-width: 1px;"></rect><rect y="93.60000000000002" width="14" height="14" fill="#F05138" stroke="#141321" style="stroke-width: 1px;"></rect><rect y="118.80000000000001" width="14" height="14" fill="#e34c26" stroke="#141321" style="stroke-width: 1px;"></rect><text x="16.8" y="30" style="fill: #a9fef7; font-size: 14px;">Python</text><text x="16.8" y="55.2" style="fill: #a9fef7; font-size: 14px;">TypeScript</text><text x="16.8" y="80.4" style="fill: #a9fef7; font-size: 14px;">JavaScript</text><text x="16.8" y="105.60000000000002" style="fill: #a9fef7; font-size: 14px;">Swift</text><text x="16.8" y="130.8" style="fill: #a9fef7; font-size: 14px;">HTML</text></g><g transform="translate( 230, 80 )"><g class="arc"><path d="M3.67394039744206e-15,-60A60,60,0,1,1,-16.08175057645319,57.80464772314375L-9.381021169597693,33.71937783850052A35,35,0,1,0,2.1431318985078682e-15,-35Z" style="fill: #3572A5; stroke-width: 2px;" stroke="#141321"></path></g><g class="arc"><path d="M-16.08175057645319,57.80464772314375A60,60,0,0,1,-49.724263778964854,-33.5782309188546L-29.005820537729498,-19.58730136933185A35,35,0,0,0,-9.381021169597693,33.71937783850052Z" style="fill: #3178c6; stroke-width: 2px;" stroke="#141321"></path></g><g class="arc"><path d="M-49.724263778964854,-33.5782309188546A60,60,0,0,1,-30.98666422811141,-51.37924327989155L-18.07555413306499,-29.971225246603403A35,35,0,0,0,-29.005820537729498,-19.58730136933185Z" style="fill: #f1e05a; stroke-width: 2px;" stroke="#141321"></path></g><g class="arc"><path d="M-30.98666422811141,-51.37924327989155A60,60,0,0,1,-12.922593373680261,-58.59186445658233L-7.538179467980152,-34.17858759967302A35,35,0,0,0,-18.07555413306499,-29.971225246603403Z" style="fill: #F05138; stroke-width: 2px;" stroke="#141321"></path></g><g class="arc"><path d="M-12.922593373680261,-58.59186445658233A60,60,0,0,1,-6.431252637433369e-14,-60L-3.7515640385027985e-14,-35A35,35,0,0,0,-7.538179467980152,-34.17858759967302Z" style="fill: #e34c26; stroke-width: 2px;" stroke="#141321"></path></g></g></g></svg>