<svg xmlns="http://www.w3.org/2000/svg" width="340" height="200" viewBox="0 0 340 200"><style>* {
          font-family: 'Segoe UI', Ubuntu, "Helvetica Neue", Sans-Serif
        }</style><rect x="1" y="1" rx="5" ry="5" height="99%" width="99.41176470588235%" stroke="#141321" stroke-width="1" fill="#141321" stroke-opacity="1"></rect><text x="30" y="40" style="font-size: 22px; fill: red;">Top Languages by Commit</text><g transform="translate(0,40)"><g transform="translate(40,0)"><rect y="18" width="14" height="14" fill="#3572A5" stroke="#141321" style="stroke-width: 1px;"></rect><rect y="43.2" width="14" height="14" fill="#3178c6" stroke="#141321" style="stroke-width: 1px;"></rect><rect y="68.4" width="14" height="14" fill="#f1e05a" stroke="#141321" style="stroke-width: 1px;"></rect><rect y="93.60000000000002" width="14" height="14" fill="#e34c26" stroke="#141321" style="stroke-width: 1px;"></rect><rect y="118.80000000000001" width="14" height="14" fill="#00ADD8" stroke="#141321" style="stroke-width: 1px;"></rect><text x="16.8" y="30" style="fill: #a9fef7; font-size: 14px;">Python</text><text x="16.8" y="55.2" style="fill: #a9fef7; font-size: 14px;">TypeScript</text><text x="16.8" y="80.4" style="fill: #a9fef7; font-size: 14px;">JavaScript</text><text x="16.8" y="105.60000000000002" style="fill: #a9fef7; font-size: 14px;">HTML</text><text x="16.8" y="130.8" style="fill: #a9fef7; font-size: 14px;">Go</text></g><g transform="translate( 230, 80 )"><g class="arc"><path d="M3.67394039744206e-15,-60A60,60,0,1,1,-24.565134418128263,54.74079074163334L-14.329661743908154,31.932127932619448A35,35,0,1,0,2.1431318985078682e-15,-35Z" style="fill: #3572A5; stroke-width: 2px;" stroke="#141321"></path></g><g class="arc"><path d="M-24.565134418128263,54.74079074163334A60,60,0,0,1,-40.5856717040505,-44.19053351489473L-23.674975160696125,-25.777811217021927A35,35,0,0,0,-14.329661743908154,31.932127932619448Z" style="fill: #3178c6; stroke-width: 2px;" stroke="#141321"></path></g><g class="arc"><path d="M-40.5856717040505,-44.19053351489473A60,60,0,0,1,-15.681120437436435,-57.91461354292726L-9.147320255171254,-33.78352456670757A35,35,0,0,0,-23.674975160696125,-25.777811217021927Z" style="fill: #f1e05a; stroke-width: 2px;" stroke="#141321"></path></g><g class="arc"><path d="M-15.681120437436435,-57.91461354292726A60,60,0,0,1,-2.265940692286269,-59.957197339260624L-1.3217987371669901,-34.975031781235366A35,35,0,0,0,-9.147320255171254,-33.78352456670757Z" style="fill: #e34c26; stroke-width: 2px;" stroke="#141321"></path></g><g class="arc"><path d="M-2.265940692286269,-59.957197339260624A60,60,0,0,1,-1.1021821192326178e-14,-60L-6.429395695523604e-15,-35A35,35,0,0,0,-1.3217987371669901,-34.975031781235366Z" style="fill: #00ADD8; stroke-width: 2px;" stroke="#141321"></path></g></g></g></svg>